<?xml version="1.0" encoding="UTF-8"?>
<svg width="20px" height="20px" viewBox="0 0 20 20" version="1.1" xmlns="http://www.w3.org/2000/svg" xmlns:xlink="http://www.w3.org/1999/xlink">
    <!-- Generator: Sketch 57.1 (83088) - https://sketch.com -->
    <title>instagram_up</title>
    <desc>Created with Sketch.</desc>
    <g id="Page-1" stroke="none" stroke-width="1" fill="none" fill-rule="evenodd">
        <g id="ctb-mining-tab_follow-social_share--01" transform="translate(-325.000000, -533.000000)" fill="#FFFFFF" fill-rule="nonzero">
            <g id="center" transform="translate(124.000000, 113.000000)">
                <g id="sharing-pane" transform="translate(1.000000, 372.000000)">
                    <g id="l" transform="translate(71.000000, 15.000000)">
                        <g id="share-icons" transform="translate(29.000000, 23.000000)">
                            <g id="inst" transform="translate(90.000000, 0.000000)">
                                <g id="up">
                                    <path d="M24.0355632,10 C27.1574431,10 29.6875,12.5603633 29.6875,15.7211393 L29.6875,24.1069857 C29.6875,27.266271 27.1559626,29.828125 24.0355632,29.828125 L15.6519368,29.828125 C12.5300569,29.828125 10,27.2677617 10,24.1069857 L10,15.7211393 C10,12.561854 12.5315374,10 15.6519368,10 L24.0355632,10 Z M24.0355632,11.8457031 L15.6519368,11.8457031 C13.5380951,11.8457031 11.8229167,13.5814218 11.8229167,15.7211393 L11.8229167,24.1069857 C11.8229167,26.2481951 13.5366158,27.9824219 15.6519368,27.9824219 L24.0355632,27.9824219 C26.1494049,27.9824219 27.8645833,26.2467032 27.8645833,24.1069857 L27.8645833,15.7211393 C27.8645833,13.5799299 26.1508842,11.8457031 24.0355632,11.8457031 Z M19.8697917,14.7460937 C22.7318923,14.7460937 25.0520833,17.0952871 25.0520833,19.9931641 C25.0520833,22.891041 22.7318923,25.2402344 19.8697917,25.2402344 C17.007691,25.2402344 14.6875,22.891041 14.6875,19.9931641 C14.6875,17.0952871 17.007691,14.7460937 19.8697917,14.7460937 Z M19.8697917,16.5917969 C18.0144601,16.5917969 16.5104167,18.1146408 16.5104167,19.9931641 C16.5104167,21.8716873 18.0144601,23.3945312 19.8697917,23.3945312 C21.7251232,23.3945312 23.2291667,21.8716873 23.2291667,19.9931641 C23.2291667,18.1146408 21.7251232,16.5917969 19.8697917,16.5917969 Z M25.1041667,13.3486328 C25.7945226,13.3486328 26.3541667,13.9152724 26.3541667,14.6142578 C26.3541667,15.3132432 25.7945226,15.8798828 25.1041667,15.8798828 C24.4138107,15.8798828 23.8541667,15.3132432 23.8541667,14.6142578 C23.8541667,13.9152724 24.4138107,13.3486328 25.1041667,13.3486328 Z" id="instagram_up"></path>
                                </g>
                            </g>
                        </g>
                    </g>
                </g>
            </g>
        </g>
    </g>
</svg>