<?xml version="1.0" encoding="UTF-8"?>
<svg width="20px" height="17px" viewBox="0 0 20 17" version="1.1" xmlns="http://www.w3.org/2000/svg" xmlns:xlink="http://www.w3.org/1999/xlink">
    <!-- Generator: Sketch 57.1 (83088) - https://sketch.com -->
    <title>telegram-small-up</title>
    <desc>Created with Sketch.</desc>
    <g id="Page-1" stroke="none" stroke-width="1" fill="none" fill-rule="evenodd">
        <g id="ctb-mining-tab_follow-social_share--01" transform="translate(-278.000000, -534.000000)" fill="#FFFFFF">
            <g id="center" transform="translate(124.000000, 113.000000)">
                <g id="sharing-pane" transform="translate(1.000000, 372.000000)">
                    <g id="l" transform="translate(71.000000, 15.000000)">
                        <g id="share-icons" transform="translate(29.000000, 23.000000)">
                            <g id="tg" transform="translate(45.000000, 0.000000)">
                                <g id="up">
                                    <path d="M24.9078638,26.9314884 L27.9263777,12.5844021 C28.0736223,11.9897043 28,11.5436809 27.7055108,11.2463319 C27.4110217,10.948983 27.1165325,10.948983 26.6747988,11.0976575 L8.93182661,18.0110203 C8.56371515,18.1596947 8.26922599,18.3083692 8.12198141,18.5313809 C7.97473682,18.7543926 7.97473682,18.9030671 8.04835911,19.0517415 C8.12198141,19.200416 8.34284828,19.3490905 8.71095973,19.4234277 L13.2755418,20.8358352 L23.8035294,14.1454841 C24.0980186,13.9224724 24.3188854,13.9224724 24.46613,13.9968096 C24.5397523,14.0711468 24.5397523,14.1454841 24.3925077,14.2941585 L15.852322,22.1739054 L15.4842105,26.9314884 C15.7786997,26.9314884 16.0731888,26.7828139 16.4413003,26.485465 L18.649969,24.3296852 L23.2145511,27.749198 C24.1716409,28.2695586 24.6869969,27.9722097 24.9078638,26.9314884 Z" id="telegram-small-up"></path>
                                </g>
                            </g>
                        </g>
                    </g>
                </g>
            </g>
        </g>
    </g>
</svg>