<?xml version="1.0" encoding="UTF-8"?>
<svg width="18px" height="15px" viewBox="0 0 18 15" version="1.1" xmlns="http://www.w3.org/2000/svg" xmlns:xlink="http://www.w3.org/1999/xlink">
    <!-- Generator: Sketch 57.1 (83088) - https://sketch.com -->
    <title>twitter_icon-up</title>
    <desc>Created with Sketch.</desc>
    <g id="Page-1" stroke="none" stroke-width="1" fill="none" fill-rule="evenodd">
        <g id="ctb-mining-tab_follow-social_share--01" transform="translate(-371.000000, -535.000000)" fill="#FFFFFF">
            <g id="center" transform="translate(124.000000, 113.000000)">
                <g id="sharing-pane" transform="translate(1.000000, 372.000000)">
                    <g id="l" transform="translate(71.000000, 15.000000)">
                        <g id="share-icons" transform="translate(29.000000, 23.000000)">
                            <g id="tw" transform="translate(135.000000, 0.000000)">
                                <g id="up">
                                    <path d="M12.0568828,12.6435297 C12.0568828,12.6435297 15.1339778,16.5040715 19.8215931,16.7362605 C19.8215931,16.7362605 18.864817,14.1757949 21.7249765,12.4206921 C21.7249765,12.4206921 24.0486724,11.0430677 26.2912435,13.2737245 C26.2912435,13.2737245 27.3027054,13.2242304 28.5218379,12.3194231 C28.5218379,12.3194231 28.7012617,13.1519279 27.111531,14.4910063 C27.111531,14.4910063 27.9959952,14.4187038 29,13.7549808 C29,13.7549808 28.8088256,14.9011005 27.1711882,15.7336053 C27.1711882,15.7336053 27.6694621,24.80175 18.9018768,26.7865328 C18.9018768,26.7865328 14.2653317,27.8425595 11,25.2570047 C11,25.2570047 14.4637374,25.621026 16.3038478,23.6727366 C16.3038478,23.6727366 13.9948402,23.8912406 12.8581884,21.1416937 C12.8581884,21.1416937 14.0126922,21.3419511 14.4818153,20.9596831 C14.4818153,20.9596831 12.046262,20.9777017 11.505053,17.2996268 C11.505053,17.2996268 12.4973071,17.8093935 13.1467579,17.7183881 C13.1467579,17.7183881 10.3896428,15.9995507 12.0568828,12.6435297" id="twitter_icon-up"></path>
                                </g>
                            </g>
                        </g>
                    </g>
                </g>
            </g>
        </g>
    </g>
</svg>