<?xml version="1.0" encoding="UTF-8"?>
<svg width="20px" height="12px" viewBox="0 0 20 12" version="1.1" xmlns="http://www.w3.org/2000/svg" xmlns:xlink="http://www.w3.org/1999/xlink">
    <!-- Generator: Sketch 57.1 (83088) - https://sketch.com -->
    <title>vk-small-up</title>
    <desc>Created with Sketch.</desc>
    <g id="Page-1" stroke="none" stroke-width="1" fill="none" fill-rule="evenodd">
        <g id="ctb-mining-tab_follow-social_share--01" transform="translate(-459.000000, -537.000000)" fill="#FFFFFF">
            <g id="center" transform="translate(124.000000, 113.000000)">
                <g id="sharing-pane" transform="translate(1.000000, 372.000000)">
                    <g id="l" transform="translate(71.000000, 15.000000)">
                        <g id="share-icons" transform="translate(29.000000, 23.000000)">
                            <g id="vk" transform="translate(225.000000, 0.000000)">
                                <g id="up">
                                    <path d="M18.7852941,25.9499839 L19.9811655,25.9499839 C19.9811655,25.9499839 20.341858,25.9079886 20.526687,25.6987621 C20.6963435,25.5067837 20.6908262,25.1475741 20.6908262,25.1475741 C20.6908262,25.1475741 20.6673778,23.4595137 21.4115215,23.2112916 C22.1453203,22.9660692 23.0880863,24.8416084 24.0867148,25.5622775 C24.8418931,26.1082161 25.4163803,25.9889795 25.4163803,25.9889795 L28.086746,25.9499839 C28.086746,25.9499839 29.4839983,25.8592441 28.8219242,24.703624 C28.767441,24.6091346 28.4357143,23.8494699 26.8357018,22.2873955 C25.1612059,20.6518292 25.3853456,20.9165495 27.4026027,18.0886173 C28.6315779,16.3668107 29.1226162,15.3146789 28.9688219,14.8647295 C28.8226138,14.4357777 27.9191585,14.5497649 27.9191585,14.5497649 L24.9115488,14.5685128 C24.9115488,14.5685128 24.6887885,14.5370163 24.5232699,14.6405047 C24.3618894,14.7424932 24.2577506,14.9802165 24.2577506,14.9802165 C24.2577506,14.9802165 23.7818848,16.3128168 23.1473971,17.4466894 C21.8080763,19.8374207 21.2728997,19.9641565 21.0535877,19.8156732 C20.5446182,19.4692121 20.6722054,18.4253294 20.6722054,17.6836628 C20.6722054,15.3656732 21.0060011,14.3997818 20.0211658,14.1493099 C19.6942667,14.0660693 19.4535752,14.0105755 18.6177066,14.0030763 C17.5445948,13.9903278 16.6363118,14.006076 16.1218251,14.2707962 C15.7797534,14.4470264 15.5163031,14.8399823 15.676994,14.8624798 C15.8756162,14.8902266 16.3259646,14.9899654 16.5638975,15.3311771 C16.8728654,15.7721275 16.8618308,16.7627662 16.8618308,16.7627662 C16.8618308,16.7627662 17.0390736,19.4909597 16.4480345,19.8299216 C16.0425141,20.0616456 15.4866477,19.5876988 14.2928453,17.4174427 C13.6811163,16.3060676 13.2190438,15.0784555 13.2190438,15.0784555 C13.2190438,15.0784555 13.1307672,14.8482314 12.9714556,14.7252452 C12.7790403,14.5760119 12.5093831,14.5295172 12.5093831,14.5295172 L9.65211939,14.5497649 C9.65211939,14.5497649 9.22315053,14.5617636 9.06521826,14.7582415 C8.92521717,14.9329718 9.05418369,15.2929314 9.05418369,15.2929314 C9.05418369,15.2929314 11.2914425,20.7980628 13.8245657,23.572751 C16.1480322,26.1164652 18.7852941,25.9499839 18.7852941,25.9499839" id="vk-small-up"></path>
                                </g>
                            </g>
                        </g>
                    </g>
                </g>
            </g>
        </g>
    </g>
</svg>