<?xml version="1.0" encoding="UTF-8"?>
<svg width="20px" height="14px" viewBox="0 0 20 14" version="1.1" xmlns="http://www.w3.org/2000/svg" xmlns:xlink="http://www.w3.org/1999/xlink">
    <!-- Generator: Sketch 57.1 (83088) - https://sketch.com -->
    <title>youtube_icon-up</title>
    <desc>Created with Sketch.</desc>
    <g id="Page-1" stroke="none" stroke-width="1" fill="none" fill-rule="evenodd">
        <g id="ctb-mining-tab_follow-social_share--01" transform="translate(-415.000000, -536.000000)" fill="#FFFFFF">
            <g id="center" transform="translate(124.000000, 113.000000)">
                <g id="sharing-pane" transform="translate(1.000000, 372.000000)">
                    <g id="l" transform="translate(71.000000, 15.000000)">
                        <g id="share-icons" transform="translate(29.000000, 23.000000)">
                            <g id="yt" transform="translate(180.000000, 0.000000)">
                                <g id="up">
                                    <path d="M26.9409606,13.2252828 C26.9409606,13.2252828 28.6569011,13.2846472 29.3276204,14.5605105 C29.3276204,14.5605105 29.9983397,15.4862746 29.9983397,20 L29.9988128,20.041275 C30.0022838,20.3925124 30.0160418,22.9004402 29.7209449,24.2799013 C29.4031007,25.7654276 28.7012957,26.1992881 28.7012957,26.1992881 C28.7012957,26.1992881 28.2510758,26.6331014 27.2579492,26.7514056 C26.2648227,26.8697569 23.0446,27 19.9845116,27 C19.9845116,27 14.3824774,26.9968383 12.4955179,26.6871806 C10.6759498,26.3886277 10.3644777,24.7511936 10.3445505,24.6346149 L10.3346314,24.5749837 C10.2511141,24.0610909 9.61998582,19.8915133 10.3434744,15.3768893 C10.3434744,15.3768893 10.5671584,13.4506128 12.8217752,13.2252828 C12.8217752,13.2252828 15.1398115,13.011701 19.6167858,13.0004598 L19.9845116,13 C24.7021717,13 26.9409606,13.2252828 26.9409606,13.2252828 Z M17.9120879,17.15625 L17.9120879,22.625 L23.4065934,19.890625 L17.9120879,17.15625 Z" id="youtube_icon-up"></path>
                                </g>
                            </g>
                        </g>
                    </g>
                </g>
            </g>
        </g>
    </g>
</svg>